# AST/ASF file generated using VICON BodyLanguage
# -----------------------------------------------
:version 1.10
:name VICON
:units
  mass 1.0
  length 0.45
  angle deg
:documentation
   .ast/.asf automatically generated from VICON data using
   VICON BodyBuilder and BodyLanguage model FoxedUp or BRILLIANT.MOD
:root
   order TX TY TZ RX RY RZ
   axis XYZ
   position 0 0 0  
   orientation 0 0 0 
:bonedata
  begin
     id 1 
     name lhipjoint
     direction 0.623529 -0.717805 0.309788 
     length 2.23224 
     axis 0 0 0  XYZ
  end
  begin
     id 2 
     name lfemur
     direction 0.34202 -0.939693 0  
     length 7.11402  
     axis 0 0 20  XYZ
    dof rx ry rz
    limits (-160.0 20.0)
           (-70.0 70.0)
           (-60.0 70.0)
  end
  begin
     id 3 
     name ltibia
     direction 0.34202 -0.939693 0   
     length 6.78496   
     axis 0 0 20   XYZ
    dof rx
    limits (-10.0 170.0)
  end
  begin
     id 4 
     name lfoot
     direction 0.125078 -0.343648 0.930732   
     length 1.84054   
     axis -90 7.62852e-016 20   XYZ
    dof rx rz
    limits (-45.0 90.0)
           (-70.0 20.0)
  end
  begin
     id 5 
     name ltoes
     direction 1.53565e-011 -4.21893e-011 1   
     length 0.916474   
     axis -90 7.62852e-016 20   XYZ
    dof rx
    limits (-90.0 20.0)
  end
  begin
     id 6 
     name rhipjoint
     direction -0.564688 -0.757748 0.327026   
     length 2.11457  
     axis 0 0 0  XYZ 
  end
  begin
     id 7 
     name rfemur
     direction -0.34202 -0.939693 0   
     length 7.14609   
     axis 0 0 -20   XYZ
    dof rx ry rz
    limits (-160.0 20.0)
           (-70.0 70.0)
           (-70.0 60.0)
  end
  begin
     id 8 
     name rtibia
     direction -0.34202 -0.939693 0   
     length 6.78101   
     axis 0 0 -20   XYZ
    dof rx
    limits (-10.0 170.0)
 end
 begin
     id 9 
     name rfoot
     direction -0.0992671 -0.272734 0.956955   
     length 1.96168  
     axis -90 -7.62852e-016 -20   XYZ
    dof rx rz
    limits (-45.0 90.0)
           (-20.0 70.0)
  end
  begin
     id 10 
     name rtoes
     direction -1.5356e-011 -4.21891e-011 1   
     length 0.982933   
     axis -90 -7.62852e-016 -20   XYZ
    dof rx
    limits (-90.0 20.0)
  end
  begin
     id 11 
     name lowerback
     direction -0.00596953 0.998668 0.0512524   
     length 1.87557   
     axis 0 0 0   XYZ
    dof rx ry rz
    limits (-20.0 45.0)
           (-30.0 30.0)
           (-30.0 30.0)
  end
  begin
     id 12 
     name upperback
     direction 0.00584879 0.999652 0.0257308   
     length 1.87883   
     axis 0 0 0   XYZ
    dof rx ry rz
    limits (-20.0 45.0)
           (-30.0 30.0)
           (-30.0 30.0)
  end
  begin
     id 13 
     name thorax
     direction 0.010104 0.999947 0.00178881   
     length 1.87779   
     axis 0 0 0   XYZ
    dof rx ry rz
    limits (-20.0 45.0)
           (-30.0 30.0)
           (-30.0 30.0)
  end
  begin
     id 14 
     name lowerneck
     direction 0.0120771 0.995934 -0.0892773   
     length 1.40897   
     axis 0 0 0   XYZ
    dof rx ry rz
    limits (-20.0 45.0)
           (-30.0 30.0)
           (-30.0 30.0)
  end
  begin
     id 15 
     name upperneck
     direction -0.030568 0.999465 -0.0116366   
     length 1.38661   
     axis 0 0 0   XYZ
    dof rx ry rz
    limits (-20.0 45.0)
           (-30.0 30.0)
           (-30.0 30.0)
  end
  begin
     id 16
     name head
     direction -0.0170715 0.999854 -0.00104426  
     length 1.47052  
     axis 0 0 0   XYZ
    dof rx ry rz
    limits (-20.0 45.0)
           (-30.0 30.0)
           (-30.0 30.0)
  end
  begin
     id 17 
     name lclavicle
     direction 0.977763 0.206143 0.038532  
     length 3.02424  
     axis 0 0 0   XYZ
    dof ry rz
    limits (-20.0 10.0)
           (0.0 20.0)
  end
  begin
     id 18 
     name lhumerus
     direction 1 -4.48965e-011 -2.62654e-027   
     length 4.68382   
     axis 180 -30 -90   XYZ
    dof rx ry rz
    limits (-60.0 90.0)
           (-90.0 90.0)
           (-90.0 90.0)
  end
  begin
     id 19
     name lradius
     direction 1 -4.48973e-011 -1.54954e-027   
     length 2.98124   
     axis 180 -30 -90   XYZ
    dof rx
    limits (-10.0 170.0)
  end
  begin
     id 20
     name lwrist
     direction 1 -4.48959e-011 7.20928e-028   
     length 1.49062   
     axis -5.52449e-016 90 90   XYZ
    dof ry
    limits (-180.0 0.0)
 end
  begin
     id 21 
     name lhand
     direction 1 -4.48971e-011 1.44186e-027   
     length 0.707595   
     axis -9.20027e-016 90 90   XYZ
    dof rx rz
    limits (-90.0 90.0)
           (-45.0 45.0)
  end
  begin
     id 22 
     name lfingers
     direction 1 -4.48985e-011 2.88371e-027   
     length 0.570481   
     axis -1.84005e-015 90 90   XYZ
    dof rx
    limits (0.0 90.0)
  end
  begin
     id 23
     name lthumb
     direction 0.707107 -6.34929e-011 0.707107   
     length 0.819101   
     axis -90 45 2.85299e-015   XYZ
    dof rx rz
    limits (-45.0 45.0)
           (-45.0 45.0)
  end
  begin
     id 24 
     name rclavicle
     direction -0.958661 0.284411 -0.00895327   
     length 3.11921  
     axis 0 0 0   XYZ 
    dof ry rz
    limits (-10.0 20.0)
           (-20.0 0.0)
  end
  begin
     id 25 
     name rhumerus
     direction -1 -4.48963e-011 -4.22193e-027  
     length 4.75876   
     axis 180 30 90   XYZ
    dof rx ry rz
    limits (-90.0 60.0)
           (-90.0 90.0)
           (-90.0 90.0)
  end
  begin
     id 26 
     name rradius
     direction -1 -4.48968e-011 -1.07616e-027   
     length 2.93293   
     axis 180 30 90   XYZ
    dof rx
    limits (-10.0 170.0)
  end
  begin
     id 27 
     name rwrist
     direction -1 -4.48965e-011 7.20928e-028   
     length 1.46647   
     axis -5.52449e-016 -90 -90   XYZ
    dof ry
    limits (-180.0 0.0)
  end
  begin
     id 28
     name rhand
     direction -1 -4.48971e-011 1.44186e-027   
     length 0.831748   
     axis -9.20027e-016 -90 -90   XYZ
    dof rx rz
    limits (-90.0 90.0)
           (-45.0 45.0)
  end
  begin
     id 29
     name rfingers
     direction -1 -4.48961e-011 2.88371e-027   
     length 0.670577   
     axis -1.84005e-015 -90 -90   XYZ
    dof rx
    limits (0.0 90.0)
  end
  begin
     id 30
     name rthumb
     direction -0.707107 -6.34929e-011 0.707107   
     length 0.962818   
     axis -90 -45 -2.85299e-015   XYZ
    dof rx rz
    limits (-45.0 45.0)
           (-45.0 45.0)
  end
:hierarchy
  begin
    root lhipjoint rhipjoint lowerback
    lhipjoint lfemur
    lfemur ltibia
    ltibia lfoot
    lfoot ltoes
    rhipjoint rfemur
    rfemur rtibia
    rtibia rfoot
    rfoot rtoes
    lowerback upperback
    upperback thorax
    thorax lowerneck lclavicle rclavicle
    lowerneck upperneck
    upperneck head
    lclavicle lhumerus
    lhumerus lradius
    lradius lwrist
    lwrist lhand lthumb
    lhand lfingers
    rclavicle rhumerus
    rhumerus rradius
    rradius rwrist
    rwrist rhand rthumb
    rhand rfingers
  end

#!OML:ASF E:\id_vita\Project 1\Capture day 1\Session 1\Female.ASF
:FULLY-SPECIFIED
:DEGREES
469
root -17.6913 14.527 2.1163 15.1354 82.6539 -55.5001
lowerback 8.7999 2.76178 -7.52944
upperback -0.332396 2.69201 -4.77771
thorax -5.41735 1.49218 -1.15629
lowerneck -1.611 -0.792278 -5.79385
upperneck -32.1088 3.82696 12.8935
head -10.2178 2.11179 5.27345
rclavicle 1.82882e-014 7.93151e-014
rhumerus 39.7932 17.825 -65.1221
rradius 59.3493
rwrist 20.5256
rhand -49.1827 54.0576
rfingers 7.12502
rthumb -21.8045 25.2659
lclavicle 1.82882e-014 7.93151e-014
lhumerus 53.5298 -13.9746 43.2795
lradius 49.26
lwrist -20.0544
lhand -53.9496 57.3466
lfingers 7.12502
lthumb -26.3751 805.532
rfemur -44.3275 4.39588 24.6688
rtibia 25.8615
rfoot 19.8133 -12.7649
rtoes 6.51336
lfemur -95.8313 2.55346 -22.2686
ltibia 60.7473
lfoot -32.9303 14.7545
ltoes -9.82012
470
root -17.6349 14.5487 2.09734 15.7471 82.636 -54.8173
lowerback 9.00711 2.78823 -7.5521
upperback -0.284343 2.70551 -4.73754
thorax -5.48714 1.49967 -1.11277
lowerneck -1.68123 -0.782375 -6.01363
upperneck -32.1481 3.86736 12.9873
head -10.227 2.1551 5.34787
rclavicle 4.09496e-014 1.87852e-014
rhumerus 39.7275 17.8149 -65.0868
rradius 59.3532
rwrist 20.6139
rhand -49.0464 54.3155
rfingers 7.12502
rthumb -21.6735 25.5087
lclavicle 4.09496e-014 1.87852e-014
lhumerus 53.3848 -14.004 43.4496
lradius 49.397
lwrist -19.964
lhand -53.8826 59.4183
lfingers 7.12502
lthumb -26.3109 807.614
rfemur -44.2516 4.4449 24.4448
rtibia 25.8408
rfoot 21.0667 -12.723
rtoes 8.93933
lfemur -95.3 2.36752 -22.2271
ltibia 60.3582
lfoot -32.9709 14.9067
ltoes -9.9091
471
root -17.5757 14.5696 2.07804 16.6518 82.7347 -53.9355
lowerback 9.08758 2.85555 -7.68239
upperback -0.320899 2.77188 -4.5821
thorax -5.58854 1.53821 -0.893438
lowerneck -1.27136 -0.792537 -6.30149
upperneck -32.3516 3.81955 12.9865
head -10.3809 2.14515 5.41594
rclavicle 3.69739e-014 8.42847e-014
rhumerus 39.3311 17.8234 -64.8493
rradius 59.4959
rwrist 20.6309
rhand -49.0932 54.5961
rfingers 7.12502
rthumb -21.7186 25.7945
lclavicle 3.69739e-014 8.42847e-014
lhumerus 53.2358 -14.2574 43.9682
lradius 49.3859
lwrist -20.2946
lhand -53.8351 59.9842
lfingers 7.12502
lthumb -26.2655 808.186
rfemur -44.3053 4.23818 24.3012
rtibia 25.8272
rfoot 22.1817 -12.5462
rtoes 9.90945
lfemur -94.8712 2.09364 -22.2897
ltibia 59.9569
lfoot -33.0654 15.025
ltoes -8.68879
472
root -17.5156 14.5895 2.05962 17.0325 82.7179 -53.6003
lowerback 9.10703 2.96792 -7.82805
upperback -0.383307 2.90048 -4.41674
thorax -5.6882 1.60795 -0.662543
lowerneck -0.762748 -0.837057 -6.44396
upperneck -32.5626 3.69624 12.9216
head -10.5467 2.08043 5.44065
rclavicle 4.41302e-014 1.45809e-013
rhumerus 39.0167 17.891 -64.414
rradius 59.5943
rwrist 20.4819
rhand -49.2303 54.7385
rfingers 7.12502
rthumb -21.8502 25.9522
lclavicle 4.41302e-014 1.45809e-013
lhumerus 53.1039 -14.565 44.4527
lradius 49.3024
lwrist -20.7671
lhand -53.957 59.7579
lfingers 7.12502
lthumb -26.3821 807.942
rfemur -44.4065 4.12375 24.2103
rtibia 25.9035
rfoot 23.6402 -12.4984
rtoes 10.1532
lfemur -94.4578 1.92746 -22.2391
ltibia 59.4981
lfoot -32.9755 15.2781
ltoes -8.33617
473
root -17.4604 14.6046 2.03861 16.6535 82.5291 -54.0149
lowerback 9.18839 2.99103 -7.64788
upperback -0.293122 2.94503 -4.47481
thorax -5.62776 1.62093 -0.829505
lowerneck -1.06663 -0.861568 -6.28271
upperneck -32.5873 3.70568 12.9039
head -10.4971 2.08781 5.40198
rclavicle 2.74323e-014 1.98785e-015
rhumerus 39.3734 17.8726 -64.2317
rradius 59.4007
rwrist 20.2991
rhand -49.1216 54.9705
rfingers 7.12502
rthumb -21.7458 26.172
lclavicle 2.74323e-014 1.98785e-015
lhumerus 53.1942 -14.4244 44.4075
lradius 49.3732
lwrist -20.566
lhand -53.7828 59.5964
lfingers 7.12502
lthumb -26.2154 807.806
rfemur -44.5053 4.27139 24.0823
rtibia 26.0033
rfoot 24.4962 -12.3081
rtoes 9.89447
lfemur -94.0001 1.92247 -22.1299
ltibia 59.0633
lfoot -32.8263 15.648
ltoes -8.41157
474
root -17.4084 14.615 2.01846 18.3437 82.8046 -52.5525
lowerback 9.01667 2.7819 -7.39986
upperback -0.20233 2.72046 -4.64741
thorax -5.40283 1.4999 -1.10036
lowerneck -1.53632 -0.848851 -5.94463
upperneck -32.5008 3.76182 12.8086
head -10.3763 2.1114 5.29134
rclavicle -7.7526e-014 -2.92213e-014
rhumerus 39.8039 17.76 -64.3561
rradius 59.0712
rwrist 20.2296
rhand -49.063 55.21
rfingers 7.12502
rthumb -21.6895 26.405
lclavicle -7.7526e-014 -2.92213e-014
lhumerus 53.3268 -14.2654 44.1575
lradius 49.3526
lwrist -20.3928
lhand -53.8323 59.6472
lfingers 7.12502
lthumb -26.2628 807.85
rfemur -44.8663 4.29866 23.5865
rtibia 26.1609
rfoot 28.059 -12.5009
rtoes 23.0844
lfemur -93.775 1.47434 -22.3259
ltibia 58.5681
lfoot -32.5077 16.0347
ltoes -9.37031
475
root -17.3506 14.6342 1.99979 19.3904 82.8303 -51.5285
lowerback 9.05967 2.74301 -7.32957
upperback -0.165517 2.67322 -4.72491
thorax -5.37907 1.47405 -1.21448
lowerneck -1.68943 -0.849021 -5.73189
upperneck -32.4577 3.7518 12.6952
head -10.3264 2.09938 5.20689
rclavicle -2.46493e-014 -1.98785e-015
rhumerus 39.8006 17.6316 -64.5412
rradius 58.9846
rwrist 20.345
rhand -49.119 55.6093
rfingers 7.12502
rthumb -21.7433 26.8106
lclavicle -2.46493e-014 -1.98785e-015
lhumerus 53.3832 -14.3546 43.9281
lradius 49.2229
lwrist -20.5255
lhand -53.8988 59.0604
lfingers 7.12502
lthumb -26.3265 807.253
rfemur -44.9982 4.3205 23.2627
rtibia 26.3221
rfoot 28.9171 -12.4886
rtoes 23.7688
lfemur -93.3351 1.25971 -22.4034
ltibia 58.0883
lfoot -32.3586 16.2461
ltoes -9.39053
476
root -17.2906 14.6531 1.98076 20.1699 82.8795 -50.8122
lowerback 9.03111 2.75134 -7.33464
upperback -0.124809 2.69082 -4.69922
thorax -5.32189 1.48121 -1.18371
lowerneck -1.69238 -0.869889 -5.63382
upperneck -32.5372 3.70477 12.5755
head -10.3493 2.07783 5.15022
rclavicle -3.37934e-014 -8.67695e-014
rhumerus 39.766 17.5134 -64.3462
rradius 59.017
rwrist 20.3287
rhand -49.122 56.3283
rfingers 7.12502
rthumb -21.7462 27.5299
lclavicle -3.37934e-014 -8.67695e-014
lhumerus 53.4922 -14.513 43.7921
lradius 49.2329
lwrist -20.248
lhand -53.8835 59.3325
lfingers 7.12502
lthumb -26.3118 807.528
rfemur -45.1637 4.18022 23.1086
rtibia 26.4611
rfoot 29.7388 -12.2428
rtoes 23.2974
lfemur -92.8671 1.0549 -22.5295
ltibia 57.5861
lfoot -32.4389 16.3848
ltoes -8.927
477
root -17.2281 14.6731 1.96343 20.6841 82.8349 -50.2437
lowerback 9.14506 2.83871 -7.53793
upperback -0.0886142 2.7778 -4.55856
thorax -5.36835 1.52914 -0.941201
lowerneck -1.65886 -0.852105 -5.63348
upperneck -32.5756 3.67609 12.3912
head -10.3655 2.07839 5.08421
rclavicle 7.23576e-014 5.96354e-014
rhumerus 39.8554 17.5175 -63.7218
rradius 59.0073
rwrist 20.0284
rhand -49.2475 56.2509
rfingers 7.12502
rthumb -21.8667 27.4665
lclavicle 7.23576e-014 5.96354e-014
lhumerus 53.4476 -14.6605 43.9238
lradius 49.2978
lwrist -20.0324
lhand -54.0929 59.1709
lfingers 7.12502
lthumb -26.5123 807.336
rfemur -45.1743 4.05697 22.9827
rtibia 26.5389
rfoot 30.376 -11.6882
rtoes 22.1722
lfemur -92.2729 0.973524 -22.7506
ltibia 57.101
lfoot -32.5018 16.528
ltoes -8.67588
478
root -17.1668 14.7 1.94687 21.1744 82.7438 -49.6372
lowerback 9.35768 2.90428 -7.7043
upperback -0.090363 2.82403 -4.46926
thorax -5.50536 1.55857 -0.77472
lowerneck -1.60942 -0.839398 -5.77968
upperneck -32.4949 3.67079 12.4298
head -10.3443 2.08186 5.12368
rclavicle 6.7388e-014 3.12589e-014
rhumerus 39.7118 17.6348 -63.5476
rradius 59.0648
rwrist 20.0434
rhand -49.546 56.073
rfingers 7.12502
rthumb -22.1533 27.3223
lclavicle 6.7388e-014 3.12589e-014
lhumerus 53.1702 -14.7957 44.0567
lradius 49.4225
lwrist -20.0605
lhand -54.1489 61.1326
lfingers 7.12502
lthumb -26.5658 809.289
rfemur -45.1545 4.04164 22.7754
rtibia 26.682
rfoot 31.2027 -11.0951
rtoes 21.6484
lfemur -91.6558 0.956631 -23.0034
ltibia 56.6267
lfoot -32.527 16.5361
ltoes -8.50163
479
root -17.1086 14.7195 1.92671 22.1987 82.7681 -48.6345
lowerback 9.37207 2.84015 -7.58521
upperback -0.0929111 2.74847 -4.56738
thorax -5.50176 1.51857 -0.933099
lowerneck -1.51662 -0.864607 -5.89945
upperneck -32.4202 3.6847 12.7166
head -10.3381 2.06704 5.25168
rclavicle -1.74931e-014 1.3418e-015
rhumerus 39.5463 17.7153 -63.9031
rradius 58.8559
rwrist 20.0417
rhand -49.2475 56.4726
rfingers 7.12502
rthumb -21.8667 27.6881
lclavicle -1.74931e-014 1.3418e-015
lhumerus 52.9528 -14.9584 43.8181
lradius 49.5906
lwrist -19.9983
lhand -54.2776 62.636
lfingers 7.12502
lthumb -26.689 989.226
rfemur -45.2664 4.06671 22.3931
rtibia 26.8209
rfoot 32.0145 -11.239
rtoes 21.9516
lfemur -91.1778 0.799244 -23.2054
ltibia 56.1486
lfoot -32.5259 16.4135
ltoes -8.07217
